External Loads File
version=1
nRows=93
nColumns=13
Range=5.000000e-03-10 seconds
endheader
time 	forceRightX 	forceRightY 	forceRightZ 	pointRightX 	pointRightY 	pointRightZ 	forceLeftX 	forceLeftY 	forceLeftZ 	pointLeftX 	pointLeftY 	pointLeftZ 		
7.505000 67.350866 335.832162 -0.000000 0.409322 0.454544 -0.109694 152.794382 185.975948 -0.000000 0.220813 0.153216 -0.356689
7.510000 77.422150 372.690237 -0.000000 0.415549 0.449168 -0.109960 139.772958 138.238588 -0.000000 0.212927 0.159461 -0.356570
7.515000 84.726848 408.755287 -0.000000 0.421533 0.443104 -0.110085 126.050110 91.662279 -0.000000 0.205573 0.166172 -0.356684
7.520000 88.665208 442.390188 -0.000000 0.427189 0.436387 -0.109956 111.290228 46.589929 -0.000000 0.198710 0.173351 -0.356855
7.525000 88.798917 472.195073 -0.000000 0.432359 0.428468 -0.110276 95.154803 3.583468 -0.000000 0.192653 0.180796 -0.356971
7.530000 84.911144 497.252449 -0.000000 0.437696 0.420370 -0.110797 77.442377 -36.599643 -0.000000 0.187334 0.188589 -0.357104
7.535000 76.733323 517.283472 -0.000000 0.442470 0.411516 -0.110683 58.270734 -73.085335 -0.000000 0.182839 0.196561 -0.357214
7.540000 65.443977 532.376208 -0.000000 0.446883 0.402093 -0.110388 37.916568 -105.237105 -0.000000 0.178569 0.204734 -0.356076
7.545000 51.131400 543.251964 -0.000000 0.450991 0.392366 -0.109953 17.071789 -132.468180 -0.000000 0.175149 0.213286 -0.356047
7.550000 35.127504 550.801481 -0.000000 0.454925 0.382275 -0.109946 -3.594481 -154.524153 -0.000000 0.172304 0.222139 -0.355967
7.555000 17.853324 556.204505 -0.000000 0.458128 0.371911 -0.109682 -23.126486 -171.334190 -0.000000 0.169936 0.231255 -0.355971
7.560000 0.858644 560.685594 -0.000000 0.460898 0.361189 -0.109364 -40.945515 -182.960547 -0.000000 0.168016 0.240704 -0.355830
7.565000 -15.515305 565.518098 -0.000000 0.463115 0.350364 -0.109251 -56.221747 -189.624837 -0.000000 0.166640 0.250437 -0.355701
7.570000 -30.644334 571.808117 -0.000000 0.464619 0.339504 -0.108960 -68.358033 -191.698872 -0.000000 0.165744 0.260364 -0.355659
7.575000 -43.473112 580.475070 -0.000000 0.465568 0.328595 -0.108808 -77.127474 -189.631438 -0.000000 0.165387 0.270550 -0.355573
7.580000 -53.313484 592.201568 -0.000000 0.466024 0.317521 -0.108836 -82.444098 -184.027654 -0.000000 0.165456 0.280824 -0.355509
7.585000 -59.910797 607.343215 -0.000000 0.465852 0.306431 -0.108676 -84.361191 -175.666851 -0.000000 0.166104 0.291182 -0.355409
7.590000 -62.437287 625.962068 -0.000000 0.464993 0.295275 -0.108374 -83.337750 -165.281932 -0.000000 0.167319 0.301672 -0.355376
7.595000 -60.563165 647.727014 -0.000000 0.463408 0.284058 -0.108359 -79.846558 -153.610422 -0.000000 0.169110 0.312174 -0.355236
7.600000 -54.458897 671.962538 -0.000000 0.461279 0.273009 -0.108167 -74.400435 -141.315988 -0.000000 0.171475 0.322662 -0.355197
7.605000 -44.315272 697.800165 -0.000000 0.458421 0.262259 -0.108035 -67.637536 -128.873222 -0.000000 0.174410 0.333060 -0.355155
7.610000 -29.761861 724.312428 -0.000000 0.454970 0.251652 -0.108048 -60.276122 -116.549560 -0.000000 0.177924 0.343387 -0.355008
7.615000 -12.121500 750.467189 -0.000000 0.450961 0.241503 -0.108184 -52.637235 -104.682483 -0.000000 0.182067 0.353490 -0.354915
7.620000 8.694889 775.350059 -0.000000 0.446468 0.231539 -0.108334 -45.184161 -93.436543 -0.000000 0.186673 0.363421 -0.354981
7.625000 32.231555 798.128696 -0.000000 0.441322 0.221961 -0.108358 -38.221887 -82.993835 -0.000000 0.191894 0.373267 -0.354975
7.630000 57.145495 818.217894 -0.000000 0.435707 0.212652 -0.108288 -31.951406 -73.530469 -0.000000 0.197573 0.382778 -0.354992
7.635000 82.986124 835.245239 -0.000000 0.429594 0.203676 -0.108223 -26.635893 -65.119628 -0.000000 0.203746 0.392038 -0.354840
7.640000 108.852073 849.051033 -0.000000 0.423034 0.195118 -0.108101 -22.433031 -57.797970 -0.000000 0.210382 0.400984 -0.354724
7.645000 134.621299 859.489548 -0.000000 0.416024 0.186942 -0.108059 -19.529458 -51.463248 -0.000000 0.217505 0.409631 -0.354513
7.650000 159.140057 866.604763 -0.000000 0.408581 0.179434 -0.107943 -18.000778 -45.848205 -0.000000 0.224962 0.417931 -0.354173
7.655000 183.538040 870.110135 -0.000000 0.400830 0.172227 -0.107820 -17.929329 -40.466916 -0.000000 0.233167 0.425802 -0.354896
7.660000 205.387735 870.519220 -0.000000 0.392764 0.165658 -0.107776 -19.072889 -34.803780 -0.000000 0.241453 0.433128 -0.354614
7.665000 225.975397 867.668800 -0.000000 0.384367 0.159561 -0.107617 -21.245837 -28.175978 -0.000000 0.250016 0.440242 -0.354301
7.670000 243.727686 862.047926 -0.000000 0.375642 0.154021 -0.107464 -24.041942 -19.892059 -0.000000 0.258525 0.446615 -0.352881
7.675000 260.881969 853.001811 -0.000000 0.366587 0.149056 -0.107317 -27.069479 -9.166229 -0.000000 0.267726 0.452162 -0.352258
7.680000 276.137876 840.637829 -0.000000 0.357278 0.144770 -0.107223 -29.752255 4.558194 -0.000000 0.277026 0.457153 -0.352110
7.685000 289.626297 824.491706 -0.000000 0.347760 0.140992 -0.106739 -31.502868 21.611143 -0.000000 0.286478 0.461370 -0.352001
7.690000 301.018603 804.143633 -0.000000 0.338246 0.137851 -0.106487 -31.761318 41.971254 -0.000000 0.296115 0.465249 -0.351879
7.695000 309.866783 779.216412 -0.000000 0.328608 0.135410 -0.106249 -30.075139 65.240890 -0.000000 0.305723 0.468088 -0.351865
7.700000 315.830322 749.400814 -0.000000 0.318961 0.133568 -0.106032 -26.128523 90.647577 -0.000000 0.315244 0.470317 -0.352118
7.705000 318.779871 714.523807 -0.000000 0.309262 0.132499 -0.105840 -19.779229 117.145799 -0.000000 0.324664 0.471897 -0.352343
7.710000 318.301289 674.865078 -0.000000 0.299520 0.132168 -0.105632 -11.176002 143.656540 -0.000000 0.333856 0.472942 -0.352795
7.715000 313.659901 631.294467 -0.000000 0.290075 0.132596 -0.105357 -0.836960 169.411957 -0.000000 0.342734 0.473386 -0.353191
7.720000 306.273969 584.015947 -0.000000 0.280140 0.133741 -0.105519 11.061246 194.199253 -0.000000 0.351195 0.473534 -0.353742
7.725000 295.623798 534.383649 -0.000000 0.270587 0.135554 -0.105420 23.723877 218.340325 -0.000000 0.359347 0.472567 -0.354963
7.730000 281.976886 483.381561 -0.000000 0.261399 0.137951 -0.105496 36.341239 242.550881 -0.000000 0.367021 0.471157 -0.355288
7.735000 266.936157 430.992122 -0.000000 0.252244 0.141229 -0.105462 48.669419 267.549186 -0.000000 0.374212 0.468889 -0.355895
7.740000 250.992641 377.396811 -0.000000 0.243134 0.144947 -0.105678 60.047693 293.909342 -0.000000 0.380997 0.465795 -0.356727
7.745000 233.656062 323.014773 -0.000000 0.234772 0.149256 -0.105377 68.928205 322.016853 -0.000000 0.387212 0.462414 -0.357487
7.750000 216.478053 266.479605 -0.000000 0.226455 0.154065 -0.105307 75.702202 351.425257 -0.000000 0.393421 0.458167 -0.358552
7.755000 198.691346 207.786915 -0.000000 0.218414 0.159504 -0.105385 79.229333 381.649312 -0.000000 0.399368 0.453449 -0.359110
7.760000 179.688410 146.925190 -0.000000 0.210985 0.165427 -0.105307 78.738600 411.847181 -0.000000 0.405032 0.448072 -0.359347
7.765000 158.901648 84.080257 -0.000000 0.204304 0.171977 -0.104988 74.223343 440.905719 -0.000000 0.410435 0.441757 -0.359668
7.770000 135.511817 20.140331 -0.000000 0.198262 0.178954 -0.104571 65.793021 467.843236 -0.000000 0.415784 0.434772 -0.360159
7.775000 108.849638 -43.243441 -0.000000 0.192860 0.186098 -0.104277 53.058526 492.048978 -0.000000 0.420958 0.427473 -0.360299
7.780000 78.689869 -104.333699 -0.000000 0.188173 0.193483 -0.103987 36.977102 513.101287 -0.000000 0.426056 0.419504 -0.360073
7.785000 45.242229 -161.021602 -0.000000 0.184168 0.200993 -0.103626 18.351664 531.024037 -0.000000 0.430978 0.410792 -0.359982
7.790000 9.385179 -211.207973 -0.000000 0.180647 0.208709 -0.103335 -2.002837 546.163490 -0.000000 0.435551 0.401678 -0.360121
7.795000 -27.544852 -253.077233 -0.000000 0.177656 0.216744 -0.103266 -22.891291 559.110982 -0.000000 0.439912 0.392282 -0.360096
7.800000 -63.978731 -285.199533 -0.000000 0.175169 0.225143 -0.103132 -42.979971 570.700909 -0.000000 0.443841 0.382340 -0.359994
7.805000 -97.644852 -306.826238 -0.000000 0.172935 0.233916 -0.103138 -62.206521 581.796973 -0.000000 0.447213 0.372492 -0.359802
7.810000 -127.336331 -317.605983 -0.000000 0.170476 0.243001 -0.103982 -78.681286 593.394899 -0.000000 0.450168 0.362235 -0.359619
7.815000 -151.015573 -318.222636 -0.000000 0.168857 0.252514 -0.104370 -92.778775 606.102330 -0.000000 0.452611 0.351732 -0.359270
7.820000 -167.687434 -309.846623 -0.000000 0.167853 0.262272 -0.104482 -103.975921 620.387428 -0.000000 0.454550 0.340902 -0.359138
7.825000 -176.935696 -294.123716 -0.000000 0.167176 0.272301 -0.104663 -111.975666 636.530801 -0.000000 0.455969 0.329843 -0.359100
7.830000 -178.953093 -272.976569 -0.000000 0.167102 0.282604 -0.104818 -116.558012 654.689218 -0.000000 0.456877 0.318501 -0.359178
7.835000 -174.158745 -248.617916 -0.000000 0.167260 0.292981 -0.105103 -118.371498 674.704770 -0.000000 0.457280 0.307134 -0.359333
7.840000 -163.767641 -222.886169 -0.000000 0.168051 0.303564 -0.105532 -117.482968 696.342347 -0.000000 0.457151 0.295926 -0.359343
7.845000 -149.181967 -197.300618 -0.000000 0.169552 0.314165 -0.105944 -114.364948 719.196294 -0.000000 0.456517 0.284955 -0.358816
7.850000 -132.023161 -172.786857 -0.000000 0.171684 0.324583 -0.106220 -108.982374 742.925946 -0.000000 0.455079 0.274078 -0.358490
7.855000 -113.824055 -149.841930 -0.000000 0.174414 0.335103 -0.106480 -100.790578 767.247547 -0.000000 0.453006 0.263397 -0.358143
7.860000 -95.672619 -128.888866 -0.000000 0.177836 0.345488 -0.106828 -89.952287 791.732644 -0.000000 0.450267 0.252833 -0.357901
7.865000 -78.422354 -110.197888 -0.000000 0.181688 0.355636 -0.107054 -76.749678 815.889854 -0.000000 0.446872 0.242377 -0.357733
7.870000 -62.773731 -93.895539 -0.000000 0.186322 0.365539 -0.107375 -61.303207 839.177171 -0.000000 0.443029 0.232167 -0.357558
7.875000 -49.264354 -80.031225 -0.000000 0.191473 0.375337 -0.107811 -43.834532 860.962065 -0.000000 0.438623 0.222427 -0.357388
7.880000 -38.393185 -68.509923 -0.000000 0.197073 0.385048 -0.108258 -23.404977 880.582311 -0.000000 0.433583 0.212863 -0.357198
7.885000 -30.327473 -59.234637 -0.000000 0.203239 0.394314 -0.108595 -1.147916 897.259370 -0.000000 0.428082 0.203551 -0.356997
7.890000 -25.214880 -51.882904 -0.000000 0.209913 0.403440 -0.109113 23.388878 910.326977 -0.000000 0.422000 0.194617 -0.356893
7.895000 -22.920562 -46.019399 -0.000000 0.217212 0.412181 -0.109444 48.946744 919.206056 -0.000000 0.415593 0.186139 -0.356792
7.900000 -23.122729 -41.044281 -0.000000 0.224573 0.420382 -0.110058 73.659080 923.555648 -0.000000 0.408688 0.178316 -0.356696
7.905000 -25.491067 -36.168268 -0.000000 0.232516 0.428242 -0.110560 99.273090 922.944844 -0.000000 0.401378 0.170786 -0.356626
7.910000 -29.386855 -30.654488 -0.000000 0.240955 0.435639 -0.111114 124.484841 917.300633 -0.000000 0.393676 0.163830 -0.356551
7.915000 -34.059350 -23.840410 -0.000000 0.249592 0.442591 -0.111774 147.857190 906.833638 -0.000000 0.385768 0.157389 -0.356553
7.920000 -38.775075 -15.135759 -0.000000 0.258826 0.448936 -0.111761 170.232418 891.501931 -0.000000 0.377531 0.151450 -0.356601
7.925000 -42.783588 -4.276419 -0.000000 0.268014 0.454566 -0.112394 189.412519 871.781952 -0.000000 0.369061 0.146110 -0.356643
7.930000 -45.541116 8.889476 -0.000000 0.277376 0.459414 -0.112668 205.964247 847.658970 -0.000000 0.360341 0.141314 -0.356749
7.935000 -46.656350 24.286336 -0.000000 0.287110 0.463713 -0.113004 220.275729 819.064112 -0.000000 0.351480 0.137109 -0.356811
7.940000 -45.935924 41.543214 -0.000000 0.296833 0.467423 -0.113086 231.551442 786.177584 -0.000000 0.342382 0.133509 -0.356828
7.945000 -43.334654 60.123725 -0.000000 0.306734 0.470227 -0.113044 239.592179 749.023139 -0.000000 0.333278 0.130613 -0.356861
7.950000 -38.927959 79.355649 -0.000000 0.316572 0.472629 -0.113155 244.328356 707.621544 -0.000000 0.324039 0.128389 -0.356876
7.955000 -32.983706 98.501444 -0.000000 0.326260 0.474474 -0.113447 245.374836 662.255488 -0.000000 0.314750 0.126752 -0.356892
7.960000 -25.940294 116.981941 -0.000000 0.335643 0.475638 -0.113573 242.452243 613.467940 -0.000000 0.305485 0.125764 -0.357080
7.965000 -18.004336 134.671383 -0.000000 0.345256 0.476221 -0.113868 236.887790 561.465761 -0.000000 0.296247 0.125685 -0.357216
